<?xml version="1.0" encoding="utf-8"?>
<!-- Generator: Adobe Illustrator 17.0.0, SVG Export Plug-In . SVG Version: 6.00 Build 0)  -->
<!DOCTYPE svg PUBLIC "-//W3C//DTD SVG 1.1//EN" "http://www.w3.org/Graphics/SVG/1.1/DTD/svg11.dtd">
<svg version="1.1" xmlns="http://www.w3.org/2000/svg" xmlns:xlink="http://www.w3.org/1999/xlink" x="0px" y="0px" width="88px"
	 height="71.425px" viewBox="0 0 88 71.425" enable-background="new 0 0 88 71.425" xml:space="preserve">
<g id="Layer_2">
</g>
<g id="Layer_1">
</g>
<g id="Layer_3">
	<g>
		<path fill="#80C41C" stroke="#CCE70B" stroke-miterlimit="10" d="M70.005,0.785l-17.321,10l-17.32-10l-17.321,10v20h0l-17.321,10
			v20l17.321,10l17.32-10l17.321,10l17.32-10v-20h0l17.32-10v-20L70.005,0.785z"/>
		<g>
			<g>
				<defs>
					
						<rect id="SVGID_3_" x="8.104" y="-13.133" transform="matrix(-0.9345 -0.3559 0.3559 -0.9345 86.5865 73.5825)" width="83.918" height="83.918"/>
				</defs>
				<clipPath id="SVGID_1_">
					<use xlink:href="#SVGID_3_"  overflow="visible"/>
				</clipPath>
				<path clip-path="url(#SVGID_1_)" fill="#0767A3" d="M59.411,28.843c-1.213-2.426-3.271-4.29-5.797-5.253
					c-0.269-0.103-0.546-0.196-0.824-0.276l-9.398-2.744c-0.522-0.152-1.042,0.028-1.294,0.447c-0.25,0.413-0.168,0.947,0.202,1.329
					c0.258,0.264,1.157,1.331,1.482,1.718l0.012,0.015l0.013,0.014c0.054,0.058,0.179,0.205,0.167,0.306
					c-0.015,0.123-0.184,0.292-0.235,0.326c-2.081,1.398-3.62,3.501-4.324,5.916c-0.766,2.619-0.516,5.406,0.704,7.845
					c1.213,2.424,3.272,4.291,5.797,5.253c0.269,0.103,0.548,0.196,0.826,0.277c2.766,0.807,5.678,0.49,8.204-0.894
					c2.527-1.385,4.364-3.669,5.17-6.433C60.883,34.07,60.631,31.284,59.411,28.843 M46.978,43.21
					c-0.26-0.076-0.513-0.161-0.762-0.256c-4.796-1.827-7.459-7.065-5.995-12.077c0.678-2.323,2.131-4.208,3.994-5.46
					c0,0,1.193-0.819,0.212-1.89c0,0-1.189-1.42-1.523-1.765c-0.236-0.243-0.065-0.48,0.254-0.387
					c0.291,0.084,9.397,2.745,9.397,2.745c0.258,0.075,0.513,0.161,0.76,0.256c4.796,1.827,7.46,7.065,5.996,12.078
					C57.771,41.725,52.249,44.75,46.978,43.21"/>
				<path clip-path="url(#SVGID_1_)" fill="#0767A3" d="M55.164,31.771c-0.427-0.125-0.897,0.003-1.319,0.359
					c-0.409,0.344-0.73,0.862-0.904,1.459c-0.353,1.207,0.002,2.392,0.809,2.7c0.028,0.011,0.057,0.02,0.087,0.03
					c0.425,0.125,0.895-0.003,1.32-0.361c0.407-0.343,0.727-0.861,0.903-1.458C56.426,33.25,56.026,32.019,55.164,31.771
					 M54.976,35.744c-0.35,0.295-0.728,0.402-1.062,0.306c-0.715-0.215-1.026-1.281-0.705-2.382c0.16-0.546,0.449-1.015,0.814-1.324
					c0.351-0.294,0.728-0.402,1.063-0.305c0.021,0.006,0.043,0.013,0.065,0.021c0.67,0.255,0.951,1.293,0.639,2.36
					C55.632,34.967,55.343,35.436,54.976,35.744"/>
				<path clip-path="url(#SVGID_1_)" fill="#0767A3" d="M50.643,29.326c-0.644-0.188-1.348-0.019-1.981,0.476
					c-0.62,0.486-1.101,1.229-1.353,2.092c-0.504,1.726,0.063,3.445,1.289,3.912c0.045,0.017,0.092,0.033,0.139,0.046
					c1.313,0.384,2.809-0.767,3.334-2.567C52.594,31.494,51.966,29.707,50.643,29.326 M48.816,35.584
					c-1.173-0.345-1.717-1.969-1.237-3.612c0.236-0.807,0.681-1.499,1.256-1.949c0.559-0.438,1.176-0.59,1.731-0.429
					c0.04,0.013,0.079,0.027,0.118,0.041c1.091,0.415,1.583,1.983,1.119,3.571C51.32,34.858,49.981,35.925,48.816,35.584"/>
				<path clip-path="url(#SVGID_1_)" fill="#0767A3" d="M57.441,29.829c-0.965-1.93-2.602-3.413-4.612-4.179l-0.298,0.784
					l0.298-0.784l-0.002-0.001c-0.213-0.081-0.435-0.157-0.656-0.221c-2.199-0.642-4.518-0.389-6.528,0.711
					c-2.008,1.101-3.469,2.918-4.111,5.119c-0.61,2.083-0.41,4.299,0.561,6.24c0.965,1.93,2.602,3.413,4.612,4.179
					c0.215,0.082,0.434,0.156,0.656,0.221c4.542,1.327,9.316-1.289,10.641-5.83C58.611,33.987,58.412,31.771,57.441,29.829
					 M47.596,41.094c-0.202-0.059-0.4-0.126-0.593-0.199c-3.734-1.422-5.805-5.498-4.666-9.4c1.198-4.105,5.495-6.458,9.598-5.261
					c0.202,0.059,0.4,0.126,0.593,0.199c3.735,1.423,5.807,5.499,4.668,9.401C55.998,39.939,51.7,42.293,47.596,41.094"/>
				<path clip-path="url(#SVGID_1_)" fill="#0767A3" d="M66.093,27.689c-2.438-4.899-6.582-8.666-11.671-10.604l-1.195,3.137
					l1.195-3.137c-0.514-0.196-1.042-0.374-1.569-0.53c-11.458-3.395-23.544,3.163-26.94,14.622
					c-1.562,5.266-1.071,10.88,1.38,15.806c2.439,4.901,6.584,8.666,11.674,10.605c0.511,0.195,1.039,0.372,1.566,0.529
					c5.543,1.644,11.402,1.027,16.495-1.738c5.093-2.764,8.803-7.34,10.446-12.882C69.034,38.231,68.545,32.617,66.093,27.689
					 M41.488,54.899c-0.45-0.134-0.895-0.284-1.326-0.448c-8.857-3.373-13.768-13.088-11.031-22.321
					c2.87-9.684,13.084-15.227,22.769-12.356c0.45,0.134,0.893,0.283,1.326,0.448c8.857,3.373,13.768,13.088,11.03,22.321
					C61.385,52.226,51.171,57.769,41.488,54.899"/>
			</g>
			<line fill="#1EA8BD" stroke="#0767A3" stroke-miterlimit="10" x1="6.029" y1="55.941" x2="29.409" y2="55.941"/>
			<line fill="#1EA8BD" stroke="#0767A3" stroke-miterlimit="10" x1="8.885" y1="54.128" x2="29.409" y2="54.128"/>
			<line fill="#1EA8BD" stroke="#0767A3" stroke-miterlimit="10" x1="13.109" y1="52.253" x2="29.409" y2="52.253"/>
			<g>
				<path fill="none" stroke="#0767A3" stroke-miterlimit="10" d="M23.548,37.641c0-0.046-0.003-0.091-0.003-0.138
					c0-7.673,3.729-14.472,9.471-18.692"/>
				<path fill="none" stroke="#0767A3" stroke-miterlimit="10" d="M32.505,17.104C26.07,21.6,21.857,29.058,21.857,37.503
					c0,0.281,0.012,0.56,0.021,0.839"/>
			</g>
		</g>
	</g>
</g>
</svg>
