<?xml version="1.0" encoding="utf-8"?>
<!-- Generator: Adobe Illustrator 17.0.0, SVG Export Plug-In . SVG Version: 6.00 Build 0)  -->
<!DOCTYPE svg PUBLIC "-//W3C//DTD SVG 1.1//EN" "http://www.w3.org/Graphics/SVG/1.1/DTD/svg11.dtd">
<svg version="1.1" xmlns="http://www.w3.org/2000/svg"  x="0px" y="0px"
	 width="141.667px" height="103.667px" viewBox="0 0 141.667 103.667" enable-background="new 0 0 141.667 103.667"
	 xml:space="preserve">
<g id="Layer_2">
</g>
<g id="Layer_1">
	<g>
		<g>
			<g>
				<polygon fill="none" stroke="#000000" stroke-width="3" points="53.558,41.769 53.558,61.769 70.878,71.769 88.199,61.769 
					88.199,41.769 70.878,31.769 				"/>
				<polygon fill="none" stroke="#000000" stroke-width="3" points="53.558,41.769 53.558,61.769 70.878,71.769 88.199,61.769 
					88.199,41.769 70.878,31.769 				"/>
			</g>
			<g>
				<polygon fill="none" stroke="#000000" stroke-width="3" points="53.558,61.769 53.558,41.769 36.237,31.769 18.917,41.769 
					18.917,61.769 36.237,71.769 				"/>
				<polygon fill="none" stroke="#000000" stroke-width="3" points="53.558,61.769 53.558,41.769 36.237,31.769 18.917,41.769 
					18.917,61.769 36.237,71.769 				"/>
			</g>
			<g>
				<polygon fill="none" stroke="#000000" stroke-width="3" points="70.878,91.769 88.199,101.769 105.519,91.769 105.519,71.769 
					88.199,61.769 70.878,71.769 				"/>
				<polygon fill="none" stroke="#000000" stroke-width="3" points="70.878,91.769 88.199,101.769 105.519,91.769 105.519,71.769 
					88.199,61.769 70.878,71.769 				"/>
			</g>
			<g>
				<polygon fill="none" stroke="#000000" stroke-width="3" points="53.558,61.769 36.237,71.769 36.237,91.769 53.558,101.769 
					70.878,91.769 70.878,71.769 				"/>
				<polygon fill="none" stroke="#000000" stroke-width="3" points="53.558,61.769 36.237,71.769 36.237,91.769 53.558,101.769 
					70.878,91.769 70.878,71.769 				"/>
			</g>
			<g>
				<polygon fill="none" stroke="#000000" stroke-width="3" points="18.917,61.769 1.596,71.769 1.596,91.769 18.917,101.769 
					36.237,91.769 36.237,71.769 				"/>
				<polygon fill="none" stroke="#000000" stroke-width="3" points="18.917,61.769 1.596,71.769 1.596,91.769 18.917,101.769 
					36.237,91.769 36.237,71.769 				"/>
			</g>
			<g>
				<polygon fill="none" stroke="#000000" stroke-width="3" points="105.519,31.769 88.199,41.769 88.199,61.769 105.519,71.769 
					122.84,61.769 122.84,41.769 				"/>
				<polygon fill="none" stroke="#000000" stroke-width="3" points="105.519,31.769 88.199,41.769 88.199,61.769 105.519,71.769 
					122.84,61.769 122.84,41.769 				"/>
			</g>
			<g>
				<polygon fill="none" stroke="#000000" stroke-width="3" points="105.519,91.769 122.84,101.769 140.16,91.769 140.16,71.769 
					122.84,61.769 105.519,71.769 				"/>
				<polygon fill="none" stroke="#000000" stroke-width="3" points="105.519,91.769 122.84,101.769 140.16,91.769 140.16,71.769 
					122.84,61.769 105.519,71.769 				"/>
			</g>
			<g>
				<polygon fill="none" stroke="#000000" stroke-width="3" points="88.199,41.769 105.519,31.769 105.519,11.769 88.199,1.769 
					70.878,11.769 70.878,31.769 				"/>
				<polygon fill="none" stroke="#000000" stroke-width="3" points="88.199,41.769 105.519,31.769 105.519,11.769 88.199,1.769 
					70.878,11.769 70.878,31.769 				"/>
			</g>
			<g>
				<polygon fill="none" stroke="#000000" stroke-width="3" points="122.84,41.769 140.16,31.769 140.16,11.769 122.84,1.769 
					105.519,11.769 105.519,31.769 				"/>
				<polygon fill="none" stroke="#000000" stroke-width="3" points="122.84,41.769 140.16,31.769 140.16,11.769 122.84,1.769 
					105.519,11.769 105.519,31.769 				"/>
			</g>
		</g>
		<g>
			<g>
				<polygon fill="#159033" points="53.558,41.769 53.558,61.769 70.878,71.769 88.199,61.769 88.199,41.769 70.878,31.769 				"/>
				<polygon opacity="0.5" fill="none" stroke="#40A629" stroke-width="3" stroke-miterlimit="10" points="53.558,41.769 
					53.558,61.769 70.878,71.769 88.199,61.769 88.199,41.769 70.878,31.769 				"/>
			</g>
			<g>
				<polygon fill="#159033" points="53.558,61.769 53.558,41.769 36.237,31.769 18.917,41.769 18.917,61.769 36.237,71.769 				"/>
				<polygon opacity="0.5" fill="none" stroke="#40A629" stroke-width="3" stroke-miterlimit="10" points="53.558,61.769 
					53.558,41.769 36.237,31.769 18.917,41.769 18.917,61.769 36.237,71.769 				"/>
			</g>
			<g>
				<polygon fill="#159033" points="70.878,91.769 88.199,101.769 105.519,91.769 105.519,71.769 88.199,61.769 70.878,71.769 				
					"/>
				<polygon opacity="0.5" fill="none" stroke="#40A629" stroke-width="3" stroke-miterlimit="10" points="70.878,91.769 
					88.199,101.769 105.519,91.769 105.519,71.769 88.199,61.769 70.878,71.769 				"/>
			</g>
			<g>
				<polygon fill="#159033" points="53.558,61.769 36.237,71.769 36.237,91.769 53.558,101.769 70.878,91.769 70.878,71.769 				"/>
				<polygon opacity="0.5" fill="none" stroke="#40A629" stroke-width="3" stroke-miterlimit="10" points="53.558,61.769 
					36.237,71.769 36.237,91.769 53.558,101.769 70.878,91.769 70.878,71.769 				"/>
			</g>
			<g>
				<polygon fill="#159033" points="18.917,61.769 1.596,71.769 1.596,91.769 18.917,101.769 36.237,91.769 36.237,71.769 				"/>
				<polygon opacity="0.5" fill="none" stroke="#40A629" stroke-width="3" stroke-miterlimit="10" points="18.917,61.769 
					1.596,71.769 1.596,91.769 18.917,101.769 36.237,91.769 36.237,71.769 				"/>
			</g>
			<g>
				<polygon fill="#159033" points="105.519,31.769 88.199,41.769 88.199,61.769 105.519,71.769 122.84,61.769 122.84,41.769 				
					"/>
				<polygon opacity="0.5" fill="none" stroke="#40A629" stroke-width="3" stroke-miterlimit="10" points="105.519,31.769 
					88.199,41.769 88.199,61.769 105.519,71.769 122.84,61.769 122.84,41.769 				"/>
			</g>
			<g>
				<polygon fill="#159033" points="105.519,91.769 122.84,101.769 140.16,91.769 140.16,71.769 122.84,61.769 105.519,71.769 				
					"/>
				<polygon opacity="0.5" fill="none" stroke="#40A629" stroke-width="3" stroke-miterlimit="10" points="105.519,91.769 
					122.84,101.769 140.16,91.769 140.16,71.769 122.84,61.769 105.519,71.769 				"/>
			</g>
			<g>
				<polygon fill="#159033" points="88.199,41.769 105.519,31.769 105.519,11.769 88.199,1.769 70.878,11.769 70.878,31.769 				"/>
				<polygon opacity="0.5" fill="none" stroke="#40A629" stroke-width="3" stroke-miterlimit="10" points="88.199,41.769 
					105.519,31.769 105.519,11.769 88.199,1.769 70.878,11.769 70.878,31.769 				"/>
			</g>
			<g>
				<polygon fill="#159033" points="122.84,41.769 140.16,31.769 140.16,11.769 122.84,1.769 105.519,11.769 105.519,31.769 				"/>
				<polygon opacity="0.5" fill="none" stroke="#40A629" stroke-width="3" stroke-miterlimit="10" points="122.84,41.769 
					140.16,31.769 140.16,11.769 122.84,1.769 105.519,11.769 105.519,31.769 				"/>
			</g>
		</g>
	</g>
	<g>
		<polygon fill="#159033" stroke="#40A629" stroke-width="0.75" stroke-miterlimit="10" stroke-opacity="0.5" points="14.586,39.29 
			10.256,41.79 10.256,46.79 14.586,49.29 18.916,46.79 18.916,41.79 		"/>
		<polygon fill="#159033" stroke="#40A629" stroke-width="0.75" stroke-miterlimit="10" stroke-opacity="0.5" points="14.586,54.27 
			10.256,56.77 10.256,61.77 14.586,64.27 18.916,61.77 18.916,56.77 		"/>
		<polygon fill="#159033" stroke="#40A629" stroke-width="0.75" stroke-miterlimit="10" stroke-opacity="0.5" points="
			18.917,46.769 14.586,49.269 14.586,54.269 18.917,56.769 23.247,54.269 23.247,49.269 		"/>
	</g>
	<g>
		<polygon fill="#159033" stroke="#40A629" stroke-width="0.75" stroke-miterlimit="10" stroke-opacity="0.5" points="
			127.183,64.259 131.513,61.759 131.513,56.759 127.183,54.259 122.852,56.759 122.852,61.759 		"/>
		<polygon fill="#159033" stroke="#40A629" stroke-width="0.75" stroke-miterlimit="10" stroke-opacity="0.5" points="
			127.183,49.278 131.513,46.778 131.513,41.778 127.183,39.278 122.852,41.778 122.852,46.778 		"/>
		<polygon fill="#159033" stroke="#40A629" stroke-width="0.75" stroke-miterlimit="10" stroke-opacity="0.5" points="
			122.852,56.78 127.183,54.28 127.183,49.28 122.852,46.78 118.522,49.28 118.522,54.28 		"/>
	</g>
	<polygon fill="#0D5821" stroke="#40A629" stroke-width="3" stroke-miterlimit="10" stroke-opacity="0.5" points="53.557,1.769 
		36.237,11.769 18.916,1.769 1.596,11.769 1.596,31.769 18.916,41.769 36.237,31.769 53.557,41.769 70.878,31.769 70.878,11.769 	
		"/>
</g>
<g id="Layer_3">
</g>
</svg>
